<svg xmlns="http://www.w3.org/2000/svg" viewBox="0 0 64 64" fill="none">
  <defs>
    <linearGradient id="grad" x1="12" x2="52" y1="12" y2="52" gradientUnits="userSpaceOnUse">
      <stop offset="0" stop-color="#60a5fa" />
      <stop offset="1" stop-color="#2563eb" />
    </linearGradient>
  </defs>
  <rect x="6" y="6" width="52" height="52" rx="14" fill="url(#grad)" />
  <path
    fill="#f8fafc"
    d="M20 18c-1.1 0-2 .9-2 2v24c0 1.1.9 2 2 2h24c1.1 0 2-.9 2-2V24.5c0-.53-.21-1.04-.59-1.41l-6.5-6.5A2 2 0 0 0 37.5 16H20zm2 4h15v6a2 2 0 0 0 2 2h5v14H22V22zm6 10c-3.86 0-7 2.91-7 6.5s3.14 6.5 7 6.5 7-2.91 7-6.5-3.14-6.5-7-6.5zm0 4c1.66 0 3 1.12 3 2.5s-1.34 2.5-3 2.5-3-1.12-3-2.5 1.34-2.5 3-2.5z"
  />
</svg>
